# xmcd CD database file
#
# Track frame offsets:
#	150
#	13412
#	31312
#	48093
#	63301
#	78903
#	94017
#	104348
#	129068
#	147358
#	164613
#	178610
#	194931
#	210650
#	231293
#
# Disc length: 3286 seconds
#
# Revision: 1
# Processed by: cddbd v1.5.1PL0 Copyright (c) Steve Scherf et al.
# Submitted via: CDex 1.51
#
DISCID=cf0cd40f
DTITLE=Jimmy Buffett - License to Chill
DYEAR=2004
DGENRE=Country
TTITLE0=Hey Good Lookin with Clint Black, Kenny Chesney, Alan Jackson
TTITLE1=Boats to Build with Alan Jackson
TTITLE2=License to Chill With Kenny Chesney
TTITLE3=Coast of Carolina
TTITLE4=Piece of Work with Toby Keith
TTITLE5=Anything, Anytime,Anywhere
TTITLE6=A Trip Around the Sun with Martina McBride
TTITLE7=Simply Complicated
TTITLE8=Coastal Confessions
TTITLE9=Sea of Heartbreak with George Strait
TTITLE10=Conky Tonkin with Clint Black
TTITLE11=Playin the Loser Again with Bill Withers
TTITLE12=Window on the World
TTITLE13=Scarlet Begonias
TTITLE14=Back to the Island
EXTD=YEAR: 2004
EXTT0=
EXTT1=
EXTT2=
EXTT3=
EXTT4=
EXTT5=
EXTT6=
EXTT7=
EXTT8=
EXTT9=
EXTT10=
EXTT11=
EXTT12=
EXTT13=
EXTT14=
PLAYORDER=
